<svg xmlns="http://www.w3.org/2000/svg" fill="none" viewBox="0 0 512 512"><path fill="url(#a)" d="M0 0h512v512H0z"/><path fill="#fff" fill-rule="evenodd" d="M442.916 255.958 255.958 69 69 255.958l186.958 186.958 186.958-186.958ZM313.363 183.22l-57.285-57.284-57.284 57.284 15.22 15.22 42.064-42.065 42.065 42.065 15.22-15.22Zm-36.555 36.555-20.73-20.73-20.729 20.73-15.825 15.825-20.73 20.73 20.73 20.73 15.244 15.244 21.31 21.31 21.31-21.31 15.245-15.244 20.73-20.73-20.73-20.73-15.825-15.825Zm-78.619-5.51-15.22-15.22-57.285 57.285 57.285 57.284 15.22-15.219-42.065-42.065 42.065-42.065Zm15.244 99.374-14.639 14.64 57.284 57.284 57.285-57.284-14.64-14.64-42.645 42.645-42.645-42.645Zm100.535-15.244 42.065-42.065-42.065-42.065 15.22-15.22 57.284 57.285-57.284 57.284-15.22-15.219Z" clip-rule="evenodd"/><defs><linearGradient id="a" x1="256" x2="256" y1="0" y2="512" gradientUnits="userSpaceOnUse"><stop stop-color="#8E6EFF"/><stop offset="1" stop-color="#6E4EF1"/></linearGradient></defs></svg>