<svg xmlns="http://www.w3.org/2000/svg" fill="none" viewBox="0 0 34 35"><path fill="#000" fill-rule="evenodd" d="m9.682 15.645 1.545 1.555 5.364-5.398-1.546-1.556-5.363 5.399ZM0 17.612l5.41 5.444 3.454-3.477-1.546-1.555-1.909 1.921-2.318-2.333 2.318-2.333 5.773 5.81 1.545-1.556-7.318-7.365L0 17.612Zm15.09-3.477-1.544 1.555 5.363 5.399 1.546-1.555-5.364-5.4Zm9.228 5.445-1.545-1.556-5.364 5.398 1.546 1.556 5.363-5.399Z" clip-rule="evenodd"/><path fill="#000" fill-rule="evenodd" d="m7.727 9.834 3.455 3.477 1.545-1.555-1.909-1.922 2.318-2.333 5.773 5.81 1.546-1.555-7.319-7.366-5.409 5.444Zm5.818 13.634 7.319 7.366 5.409-5.444-3.455-3.477-1.545 1.555 1.909 1.922-2.319 2.333-5.772-5.81-1.546 1.555Zm7.728-7.778 7.318 7.366L34 17.612l-5.41-5.444-3.454 3.477 1.546 1.555 1.909-1.921 2.318 2.333-2.318 2.333-5.773-5.81-1.545 1.555Z" clip-rule="evenodd"/><path fill="#000" fill-rule="evenodd" d="m7.727 25.39 5.41 5.444 3.454-3.477-1.546-1.556-1.909 1.922-2.318-2.333 5.773-5.81-1.546-1.556-7.318 7.366ZM17.41 7.866l1.545 1.556 1.91-1.922 2.318 2.334-5.773 5.81 1.545 1.556 7.318-7.366-5.409-5.445-3.454 3.477Z" clip-rule="evenodd"/><path fill="#000" d="M14.227 3.321 17.03.5l2.803 2.821-2.803 2.822-2.803-2.822Zm0 28.358 2.803-2.822 2.803 2.822L17.03 34.5l-2.803-2.821Z"/></svg>